<mxfile host="app.diagrams.net" modified="2023-06-30T00:15:12.813Z" agent="Mozilla/5.0 (Macintosh; Intel Mac OS X 10_15_7) AppleWebKit/537.36 (KHTML, like Gecko) Chrome/111.0.0.0 Safari/537.36" version="21.5.2" etag="SkgJ5ap-HR6IjqwrCMjB" type="github">
  <diagram name="Page-1" id="ismsO8F0nd9e3xGDoDac">
    <mxGraphModel>
      <root>
        <mxCell id="0" />
        <mxCell id="1" parent="0" />
      </root>
    </mxGraphModel>
  </diagram>
</mxfile>
